<svg xmlns="http://www.w3.org/2000/svg" viewBox="0 0 960 540" role="img" aria-labelledby="title desc">
  <title id="title">Approximate Georgia operating area</title>
  <desc id="desc">A simplified regional map showing an approximate central Georgia operating area without a street address.</desc>
  <defs>
    <linearGradient id="bg" x1="0" x2="1" y1="0" y2="1">
      <stop offset="0" stop-color="#f7fbff"/>
      <stop offset="1" stop-color="#e7f5ff"/>
    </linearGradient>
    <filter id="shadow" x="-20%" y="-20%" width="140%" height="140%">
      <feDropShadow dx="0" dy="18" stdDeviation="18" flood-color="#0e1b2a" flood-opacity=".14"/>
    </filter>
  </defs>
  <rect width="960" height="540" fill="url(#bg)"/>
  <g opacity=".45" stroke="#c7d8e8" stroke-width="1">
    <path d="M0 90h960M0 180h960M0 270h960M0 360h960M0 450h960"/>
    <path d="M120 0v540M240 0v540M360 0v540M480 0v540M600 0v540M720 0v540M840 0v540"/>
  </g>
  <g transform="translate(0 8)" filter="url(#shadow)">
    <path d="M419 78 533 82 611 130 644 219 615 300 635 376 587 438 501 462 416 430 376 367 330 343 350 282 321 235 363 169Z" fill="#ffffff" stroke="#0017cf" stroke-width="4"/>
    <path d="M383 160 432 137 510 139 570 173 596 227 584 285 604 360 561 404 503 420 444 399 407 347 366 328 385 279 358 237Z" fill="#f4f9fd" stroke="#d8e3ee" stroke-width="2"/>
  </g>
  <g fill="none" stroke="#9fb8ce" stroke-width="3" stroke-linecap="round" opacity=".85">
    <path d="M405 178c58 16 108 48 151 98"/>
    <path d="M387 296c55-21 120-17 192 14"/>
    <path d="M490 143c-8 78-4 165 13 262"/>
  </g>
  <g transform="translate(496 314)">
    <circle r="34" fill="#0017cf" opacity=".14"/>
    <circle r="19" fill="#0017cf" opacity=".24"/>
    <circle r="8" fill="#0017cf"/>
  </g>
  <g font-family="Arial, Helvetica, sans-serif">
    <text x="54" y="74" fill="#0e1b2a" font-size="38" font-weight="800">Georgia, USA</text>
    <text x="54" y="108" fill="#5f6f82" font-size="18" font-weight="700">Approximate operating area</text>
    <text x="54" y="454" fill="#0017cf" font-size="13" font-weight="900" letter-spacing="1.4">EOS</text>
    <text x="54" y="482" fill="#5f6f82" font-size="16">Central Georgia manufacturing presence</text>
  </g>
</svg>
