<svg xmlns="http://www.w3.org/2000/svg" viewBox="32.785 297.66 547.156 157.943" role="img">
  <title>EOS Logo</title>
  <rect x="32.785" y="297.66" width="547.156" height="157.943" fill="#ffffff" opacity="0"/>
  <path fill="#0017cf" d="M215.285 298.041 C180.661 298.041 167.407 310.208 167.175 342.636 L166.966 371.685 C166.734 404.114 179.814 416.27 214.438 416.27 L294.055 416.218 L294.118 411.845 L294.119 400.674 C294.116 392.809 289.968 388.624 282.104 388.572 L215.153 388.572 C200.459 388.572 196.77 384.686 196.883 368.81 L292.692 368.81 L292.684 364.418 L292.796 348.882 L292.747 344.491 L197.066 344.491 C197.173 329.629 201.075 325.916 215.601 325.916 L279.658 325.916 L279.659 325.906 L281.731 325.906 C289.693 325.906 293.953 321.709 294.064 313.794 L294.146 302.434 L294.158 298.042 Z"/>
  <path fill="#0017cf" d="M347.391 325.916 L397.727 325.916 C412.422 325.916 415.936 329.627 415.828 344.997 L415.653 369.314 C415.542 384.683 411.973 388.571 397.279 388.571 L346.942 388.571 C332.247 388.571 328.733 384.683 328.843 369.314 L329.018 344.997 C329.128 329.627 332.697 325.916 347.391 325.916 M346.405 298.041 C311.781 298.041 298.527 310.207 298.295 342.637 L298.087 371.685 C297.855 404.115 310.933 416.269 345.558 416.269 L398.255 416.269 C432.879 416.269 446.144 404.115 446.377 371.685 L446.585 342.637 C446.817 310.207 433.726 298.041 399.102 298.041 Z"/>
  <path fill="#0017cf" d="M571.707 298.032 L483.022 298.041 C462.079 298.041 451.696 309.361 451.574 326.419 L451.485 338.749 C451.35 357.834 462.087 368.809 482.185 368.809 L542.809 368.809 C547.37 368.809 549.38 371.173 549.346 375.902 L549.307 381.314 C549.275 385.873 547.233 388.571 542.502 388.571 L463.406 388.571 C455.542 388.628 451.326 392.809 451.217 400.674 L451.136 411.879 L451.063 416.28 L455.496 416.271 L548.396 416.271 C569.508 416.271 579.722 404.957 579.843 388.067 L579.94 374.553 C580.076 355.468 569.345 344.492 549.415 344.492 L488.606 344.492 C484.214 344.492 482.211 342.129 482.244 337.4 L482.275 333.009 C482.309 328.449 484.353 325.916 488.914 325.916 L563.702 325.916 C571.397 325.916 575.603 321.964 575.978 314.556 L576.065 302.433 L576.175 298.134 Z"/>
  <path fill="#0017cf" d="M188.34 447.548 L181.739 447.548 L181.739 452.693 L189.12 452.693 L189.12 455.318 L178.544 455.318 L178.544 437.803 L188.73 437.803 L188.73 440.428 L181.739 440.428 L181.739 444.949 L188.34 444.949 Z"/>
  <path fill="#0017cf" d="M192.576 437.803 L195.772 437.803 L195.772 452.64 L202.97 452.64 L202.97 455.317 L192.576 455.317 Z"/>
  <path fill="#0017cf" d="M215.833 447.548 L209.232 447.548 L209.232 452.693 L216.613 452.693 L216.613 455.318 L206.037 455.318 L206.037 437.803 L216.223 437.803 L216.223 440.428 L209.232 440.428 L209.232 444.949 L215.833 444.949 Z"/>
  <path fill="#0017cf" d="M224.278 455.317 L218.613 437.803 L222.095 437.803 L224.486 445.754 C225.162 447.963 225.733 450.016 226.201 452.147 L226.253 452.147 C226.721 450.068 227.344 447.937 228.046 445.806 L230.592 437.803 L233.997 437.803 L227.942 455.317 Z"/>
  <path fill="#0017cf" d="M243.637 447.938 L242.26 443.625 C241.922 442.558 241.636 441.363 241.376 440.349 L241.324 440.349 C241.065 441.363 240.804 442.584 240.493 443.625 L239.141 447.938 Z M238.622 450.354 L237.115 455.317 L233.815 455.317 L239.428 437.803 L243.507 437.803 L249.198 455.317 L245.768 455.317 L244.183 450.354 Z"/>
  <path fill="#0017cf" d="M253.538 440.479 L248.549 440.479 L248.549 437.803 L261.775 437.803 L261.775 440.479 L256.734 440.479 L256.734 455.317 L253.538 455.317 Z"/>
  <path fill="#0017cf" d="M274.274 447.548 L267.673 447.548 L267.673 452.693 L275.054 452.693 L275.054 455.318 L264.478 455.318 L264.478 437.803 L274.664 437.803 L274.664 440.428 L267.673 440.428 L267.673 444.949 L274.274 444.949 Z"/>
  <path fill="#0017cf" d="M293.035 446.638 C293.035 450.198 294.828 453.031 297.894 453.031 C300.987 453.031 302.728 450.172 302.728 446.508 C302.728 443.208 301.091 440.09 297.894 440.09 C294.724 440.09 293.035 443.026 293.035 446.638 M306.106 446.378 C306.106 452.251 302.546 455.603 297.713 455.603 C292.775 455.603 289.657 451.835 289.657 446.69 C289.657 441.311 293.035 437.517 297.972 437.517 C303.092 437.517 306.106 441.389 306.106 446.378"/>
  <path fill="#0017cf" d="M312.68 446.196 C313.07 446.3 313.59 446.326 314.239 446.326 C316.63 446.326 318.085 445.156 318.085 443.104 C318.085 441.155 316.734 440.115 314.525 440.115 C313.641 440.115 313.018 440.194 312.68 440.271 Z M309.51 438.037 C310.653 437.829 312.239 437.673 314.395 437.673 C316.734 437.673 318.449 438.167 319.566 439.102 C320.606 439.96 321.282 441.337 321.282 442.974 C321.282 444.637 320.762 446.014 319.774 446.95 C318.501 448.223 316.5 448.821 314.239 448.821 C313.641 448.821 313.096 448.795 312.68 448.717 L312.68 455.317 L309.51 455.317 Z"/>
  <path fill="#0017cf" d="M334.481 447.548 L327.88 447.548 L327.88 452.693 L335.261 452.693 L335.261 455.318 L324.685 455.318 L324.685 437.803 L334.871 437.803 L334.871 440.428 L327.88 440.428 L327.88 444.949 L334.481 444.949 Z"/>
  <path fill="#0017cf" d="M341.887 445.781 L343.784 445.781 C345.941 445.781 347.292 444.637 347.292 442.896 C347.292 440.973 345.941 440.09 343.862 440.09 C342.848 440.09 342.199 440.168 341.887 440.246 Z M338.717 438.037 C339.912 437.829 341.705 437.673 343.55 437.673 C346.071 437.673 347.786 438.089 348.955 439.076 C349.917 439.882 350.462 441.103 350.462 442.585 C350.462 444.845 348.929 446.379 347.292 446.976 L347.292 447.054 C348.539 447.522 349.293 448.743 349.735 450.432 C350.281 452.615 350.748 454.642 351.112 455.318 L347.812 455.318 C347.552 454.798 347.136 453.369 346.642 451.186 C346.149 448.899 345.317 448.172 343.498 448.119 L341.887 448.119 L341.887 455.318 L338.717 455.318 Z"/>
  <path fill="#0017cf" d="M362.857 447.938 L361.48 443.625 C361.142 442.558 360.856 441.363 360.596 440.349 L360.544 440.349 C360.285 441.363 360.024 442.584 359.713 443.625 L358.361 447.938 Z M357.842 450.354 L356.335 455.317 L353.035 455.317 L358.648 437.803 L362.727 437.803 L368.418 455.317 L364.988 455.317 L363.403 450.354 Z"/>
  <path fill="#0017cf" d="M372.757 440.479 L367.768 440.479 L367.768 437.803 L380.994 437.803 L380.994 440.479 L375.953 440.479 L375.953 455.317 L372.757 455.317 Z"/>
  <path fill="#0017cf" d="M386.893 455.317 L383.697 455.317 L383.697 437.803 L386.893 437.803 Z"/>
  <path fill="#0017cf" d="M391.207 455.317 L391.207 437.803 L394.845 437.803 L399.366 445.313 C400.536 447.261 401.549 449.288 402.354 451.185 L402.407 451.185 C402.199 448.847 402.121 446.586 402.121 443.909 L402.121 437.803 L405.083 437.803 L405.083 455.317 L401.783 455.317 L397.209 447.625 C396.092 445.702 394.923 443.546 394.065 441.57 L393.987 441.596 C394.117 443.858 394.143 446.17 394.143 449.054 L394.143 455.317 Z"/>
  <path fill="#0017cf" d="M423.455 454.512 C422.337 454.928 420.155 455.5 417.816 455.5 C414.853 455.5 412.619 454.746 410.955 453.161 C409.396 451.679 408.487 449.367 408.513 446.717 C408.513 441.181 412.463 437.621 418.258 437.621 C420.414 437.621 422.103 438.063 422.909 438.453 L422.207 441.026 C421.246 440.61 420.077 440.272 418.232 440.272 C414.49 440.272 411.865 442.481 411.865 446.56 C411.865 450.536 414.308 452.901 417.946 452.901 C419.089 452.901 419.947 452.745 420.363 452.537 L420.363 448.172 L417.27 448.172 L417.27 445.651 L423.455 445.651 Z"/>
  <path fill="#0017cf" d="M439.356 451.835 C440.396 452.433 441.955 452.952 443.592 452.952 C445.645 452.952 446.788 451.991 446.788 450.562 C446.788 449.236 445.904 448.457 443.669 447.651 C440.785 446.612 438.94 445.079 438.94 442.558 C438.94 439.7 441.331 437.517 445.125 437.517 C447.022 437.517 448.425 437.933 449.335 438.4 L448.555 440.973 C447.931 440.635 446.71 440.141 445.073 440.141 C443.046 440.141 442.163 441.232 442.163 442.246 C442.163 443.597 443.176 444.221 445.515 445.13 C448.555 446.274 450.036 447.807 450.036 450.328 C450.036 453.134 447.905 455.577 443.384 455.577 C441.539 455.577 439.616 455.057 438.654 454.485 Z"/>
  <path fill="#0017cf" d="M456.039 446.638 C456.039 450.198 457.832 453.031 460.898 453.031 C463.991 453.031 465.732 450.172 465.732 446.508 C465.732 443.208 464.095 440.09 460.898 440.09 C457.728 440.09 456.039 443.026 456.039 446.638 M469.11 446.378 C469.11 452.251 465.55 455.603 460.717 455.603 C455.779 455.603 452.661 451.835 452.661 446.69 C452.661 441.311 456.039 437.517 460.976 437.517 C466.096 437.517 469.11 441.389 469.11 446.378"/>
  <path fill="#0017cf" d="M472.514 437.803 L475.71 437.803 L475.71 452.64 L482.908 452.64 L482.908 455.317 L472.514 455.317 Z"/>
  <path fill="#0017cf" d="M488.287 437.803 L488.287 448.015 C488.287 451.445 489.716 453.031 491.873 453.031 C494.186 453.031 495.563 451.445 495.563 448.015 L495.563 437.803 L498.759 437.803 L498.759 447.807 C498.759 453.212 495.979 455.603 491.769 455.603 C487.715 455.603 485.091 453.342 485.091 447.833 L485.091 437.803 Z"/>
  <path fill="#0017cf" d="M506.425 440.479 L501.436 440.479 L501.436 437.803 L514.662 437.803 L514.662 440.479 L509.621 440.479 L509.621 455.317 L506.425 455.317 Z"/>
  <path fill="#0017cf" d="M520.561 455.317 L517.365 455.317 L517.365 437.803 L520.561 437.803 Z"/>
  <path fill="#0017cf" d="M527.343 446.638 C527.343 450.198 529.136 453.031 532.202 453.031 C535.295 453.031 537.036 450.172 537.036 446.508 C537.036 443.208 535.399 440.09 532.202 440.09 C529.032 440.09 527.343 443.026 527.343 446.638 M540.414 446.378 C540.414 452.251 536.854 455.603 532.021 455.603 C527.083 455.603 523.965 451.835 523.965 446.69 C523.965 441.311 527.343 437.517 532.28 437.517 C537.4 437.517 540.414 441.389 540.414 446.378"/>
  <path fill="#0017cf" d="M543.818 455.317 L543.818 437.803 L547.456 437.803 L551.977 445.313 C553.147 447.261 554.16 449.288 554.965 451.185 L555.018 451.185 C554.81 448.847 554.732 446.586 554.732 443.909 L554.732 437.803 L557.694 437.803 L557.694 455.317 L554.394 455.317 L549.82 447.625 C548.703 445.702 547.534 443.546 546.676 441.57 L546.598 441.596 C546.728 443.858 546.754 446.17 546.754 449.054 L546.754 455.317 Z"/>
  <path fill="#0017cf" d="M561.956 451.835 C562.996 452.433 564.555 452.952 566.192 452.952 C568.245 452.952 569.388 451.991 569.388 450.562 C569.388 449.236 568.504 448.457 566.269 447.651 C563.385 446.612 561.54 445.079 561.54 442.558 C561.54 439.7 563.931 437.517 567.725 437.517 C569.622 437.517 571.025 437.933 571.935 438.4 L571.155 440.973 C570.531 440.635 569.31 440.141 567.673 440.141 C565.646 440.141 564.762 441.232 564.762 442.246 C564.762 443.597 565.776 444.221 568.115 445.13 C571.155 446.274 572.636 447.807 572.636 450.328 C572.636 453.134 570.505 455.577 565.984 455.577 C564.139 455.577 562.216 455.057 561.254 454.485 Z"/>
  <path fill="#43bcff" d="M83.59 353.09 L56.471 353.09 L32.785 392.81 L78.555 392.81 L88.192 373.539 L126.133 373.539 L143.959 340.295 L89.987 340.295 Z"/>
  <path fill="#0017cf" d="M80.674 396.238 L67.306 396.238 L57.718 415.696 L104.933 415.696 L122.759 382.451 L87.567 382.451 Z"/>
  <path fill="#0017cf" d="M67.335 297.66 L165.501 297.66 L147.675 330.904 L91.425 330.904 L81.789 350.176 L36.018 350.176 Z"/>
</svg>
