<svg xmlns="http://www.w3.org/2000/svg" viewBox="21.612 27.709 747.761 256.459" role="img">
  <title>EOS Logo</title>
  <rect x="21.612" y="27.709" width="747.761" height="256.459" fill="#ffffff" opacity="0"/>
  <path fill="#0017cf" d="M267.528 140.054 L235.789 140.054 L235.789 156.316 L271.331 156.316 L271.331 175.727 L212.05 175.727 L212.05 87.33 L269.495 87.33 L269.495 106.741 L235.789 106.741 L235.789 120.906 L267.528 120.906 Z"/>
  <path fill="#0017cf" d="M283.334 87.33 L307.073 87.33 L307.073 155.922 L341.041 155.922 L341.041 175.726 L283.334 175.726 Z"/>
  <path fill="#0017cf" d="M408.372 140.054 L376.633 140.054 L376.633 156.316 L412.175 156.316 L412.175 175.727 L352.894 175.727 L352.894 87.33 L410.339 87.33 L410.339 106.741 L376.633 106.741 L376.633 120.906 L408.372 120.906 Z"/>
  <path fill="#43bcff" d="M447.896 175.727 L419.829 87.331 L445.798 87.331 L455.24 122.086 C457.995 132.053 460.356 141.759 462.585 153.038 L462.848 153.038 C464.946 142.284 467.438 132.053 470.061 122.479 L498.949 27.709 L524.131 27.709 L475.962 175.727 Z"/>
  <path fill="#0017cf" d="M589.82 107.265 L567.261 107.265 L567.261 87.33 L636.51 87.33 L636.51 107.265 L613.558 107.265 L613.558 175.726 L589.82 175.726 Z"/>
  <path fill="#0017cf" d="M704.607 140.054 L672.868 140.054 L672.868 156.316 L708.41 156.316 L708.41 175.727 L649.129 175.727 L649.129 87.33 L706.574 87.33 L706.574 106.741 L672.868 106.741 L672.868 120.906 L704.607 120.906 Z"/>
  <path fill="#000000" d="M39.571 265.152 C39.571 271.157 42.824 276.537 48.537 276.537 C54.292 276.537 57.545 271.24 57.545 264.86 C57.545 259.272 54.626 253.434 48.579 253.434 C42.574 253.434 39.571 258.98 39.571 265.152 M61.382 264.693 C61.382 274.368 55.502 279.497 48.329 279.497 C40.905 279.497 35.693 273.742 35.693 265.235 C35.693 256.311 41.239 250.473 48.746 250.473 C56.419 250.473 61.382 256.353 61.382 264.693"/>
  <path fill="#000000" d="M80.562 264.818 C81.355 265.027 82.356 265.11 83.564 265.11 C87.944 265.11 90.612 262.984 90.612 259.105 C90.612 255.394 87.986 253.6 83.983 253.6 C82.397 253.6 81.188 253.725 80.562 253.892 Z M76.934 251.265 C78.686 250.973 80.98 250.723 83.898 250.723 C87.486 250.723 90.112 251.557 91.781 253.058 C93.323 254.393 94.24 256.436 94.24 258.938 C94.24 261.482 93.49 263.484 92.073 264.943 C90.154 266.987 87.026 268.029 83.481 268.029 C82.397 268.029 81.397 267.987 80.562 267.779 L80.562 279.039 L76.934 279.039 Z"/>
  <path fill="#000000" d="M124.515 265.861 L113.589 265.861 L113.589 275.994 L125.766 275.994 L125.766 279.039 L109.961 279.039 L109.961 250.931 L125.14 250.931 L125.14 253.976 L113.589 253.976 L113.589 262.858 L124.515 262.858 Z"/>
  <path fill="#000000" d="M144.947 264.11 L148.658 264.11 C152.537 264.11 154.997 261.983 154.997 258.772 C154.997 255.144 152.37 253.559 148.533 253.517 C146.782 253.517 145.531 253.684 144.947 253.851 Z M141.319 251.307 C143.154 250.932 145.781 250.723 148.283 250.723 C152.161 250.723 154.664 251.432 156.415 253.017 C157.833 254.268 158.625 256.186 158.625 258.355 C158.625 262.067 156.29 264.527 153.329 265.527 L153.329 265.653 C155.498 266.403 156.791 268.405 157.458 271.324 C158.375 275.244 159.043 277.955 159.626 279.039 L155.873 279.039 C155.414 278.247 154.789 275.828 153.996 272.325 C153.162 268.447 151.661 266.987 148.367 266.862 L144.947 266.862 L144.947 279.039 L141.319 279.039 Z"/>
  <path fill="#000000" d="M188.565 267.362 L185.813 259.272 C185.187 257.437 184.77 255.769 184.353 254.142 L184.27 254.142 C183.853 255.811 183.394 257.52 182.852 259.23 L180.099 267.362 Z M179.349 270.198 L176.43 279.039 L172.676 279.039 L182.226 250.931 L186.605 250.931 L196.196 279.039 L192.318 279.039 L189.315 270.198 Z"/>
  <path fill="#000000" d="M213.292 254.017 L204.743 254.017 L204.743 250.931 L225.552 250.931 L225.552 254.017 L216.962 254.017 L216.962 279.038 L213.292 279.038 Z"/>
  <path fill="#000000" d="M243.149 279.039 L239.521 279.039 L239.521 250.932 L243.149 250.932 Z"/>
  <path fill="#000000" d="M260.33 279.039 L260.33 250.932 L264.291 250.932 L273.299 265.152 C275.385 268.447 277.011 271.408 278.345 274.285 L278.429 274.243 C278.095 270.49 278.012 267.07 278.012 262.692 L278.012 250.932 L281.431 250.932 L281.431 279.039 L277.762 279.039 L268.837 264.777 C266.877 261.649 265 258.438 263.583 255.394 L263.457 255.435 C263.666 258.98 263.749 262.358 263.749 267.029 L263.749 279.039 Z"/>
  <path fill="#000000" d="M320.003 277.788 C318.377 278.372 315.166 279.331 311.371 279.331 C307.117 279.331 303.614 278.246 300.862 275.62 C298.443 273.284 296.942 269.531 296.942 265.152 C296.983 256.77 302.738 250.64 312.163 250.64 C315.416 250.64 317.96 251.349 319.169 251.933 L318.294 254.893 C316.792 254.226 314.916 253.684 312.08 253.684 C305.24 253.684 300.778 257.937 300.778 264.985 C300.778 272.117 305.074 276.329 311.621 276.329 C313.998 276.329 315.625 275.995 316.459 275.578 L316.459 267.196 L310.745 267.196 L310.745 264.276 L320.003 264.276 Z"/>
  <path fill="#000000" d="M355.571 274.619 C357.197 275.62 359.574 276.454 362.076 276.454 C365.788 276.454 367.957 274.494 367.957 271.658 C367.957 269.031 366.455 267.53 362.66 266.07 C358.073 264.444 355.238 262.067 355.238 258.105 C355.238 253.726 358.865 250.473 364.328 250.473 C367.206 250.473 369.291 251.14 370.542 251.849 L369.541 254.81 C368.624 254.31 366.747 253.476 364.203 253.476 C360.367 253.476 358.907 255.769 358.907 257.688 C358.907 260.315 360.617 261.608 364.495 263.109 C369.249 264.944 371.668 267.238 371.668 271.366 C371.668 275.703 368.457 279.456 361.826 279.456 C359.116 279.456 356.155 278.664 354.654 277.663 Z"/>
  <path fill="#000000" d="M389.682 265.152 C389.682 271.157 392.935 276.537 398.648 276.537 C404.403 276.537 407.656 271.24 407.656 264.86 C407.656 259.272 404.737 253.434 398.69 253.434 C392.685 253.434 389.682 258.98 389.682 265.152 M411.493 264.693 C411.493 274.368 405.613 279.497 398.44 279.497 C391.016 279.497 385.804 273.742 385.804 265.235 C385.804 256.311 391.35 250.473 398.857 250.473 C406.53 250.473 411.493 256.353 411.493 264.693"/>
  <path fill="#000000" d="M427.045 250.931 L430.673 250.931 L430.673 275.994 L442.683 275.994 L442.683 279.038 L427.045 279.038 Z"/>
  <path fill="#000000" d="M459.695 250.931 L459.695 267.57 C459.695 273.868 462.489 276.536 466.242 276.536 C470.413 276.536 473.082 273.784 473.082 267.57 L473.082 250.931 L476.751 250.931 L476.751 267.32 C476.751 275.952 472.206 279.498 466.117 279.498 C460.362 279.498 456.025 276.202 456.025 267.487 L456.025 250.931 Z"/>
  <path fill="#000000" d="M499.227 254.017 L490.678 254.017 L490.678 250.931 L511.487 250.931 L511.487 254.017 L502.897 254.017 L502.897 279.038 L499.227 279.038 Z"/>
  <path fill="#000000" d="M529.083 279.039 L525.455 279.039 L525.455 250.932 L529.083 250.932 Z"/>
  <path fill="#000000" d="M548.474 265.152 C548.474 271.157 551.727 276.537 557.44 276.537 C563.195 276.537 566.448 271.24 566.448 264.86 C566.448 259.272 563.529 253.434 557.482 253.434 C551.477 253.434 548.474 258.98 548.474 265.152 M570.285 264.693 C570.285 274.368 564.405 279.497 557.232 279.497 C549.808 279.497 544.596 273.742 544.596 265.235 C544.596 256.311 550.142 250.473 557.649 250.473 C565.322 250.473 570.285 256.353 570.285 264.693"/>
  <path fill="#000000" d="M585.837 279.039 L585.837 250.932 L589.798 250.932 L598.806 265.152 C600.892 268.447 602.518 271.408 603.852 274.285 L603.936 274.243 C603.602 270.49 603.519 267.07 603.519 262.692 L603.519 250.932 L606.938 250.932 L606.938 279.039 L603.269 279.039 L594.344 264.777 C592.384 261.649 590.507 258.438 589.09 255.394 L588.964 255.435 C589.173 258.98 589.256 262.358 589.256 267.029 L589.256 279.039 Z"/>
  <path fill="#000000" d="M623.617 274.619 C625.243 275.62 627.62 276.454 630.122 276.454 C633.834 276.454 636.003 274.494 636.003 271.658 C636.003 269.031 634.501 267.53 630.706 266.07 C626.119 264.444 623.284 262.067 623.284 258.105 C623.284 253.726 626.911 250.473 632.374 250.473 C635.252 250.473 637.337 251.14 638.588 251.849 L637.587 254.81 C636.67 254.31 634.793 253.476 632.249 253.476 C628.413 253.476 626.953 255.769 626.953 257.688 C626.953 260.315 628.663 261.608 632.541 263.109 C637.295 264.944 639.714 267.238 639.714 271.366 C639.714 275.703 636.503 279.456 629.872 279.456 C627.162 279.456 624.201 278.664 622.7 277.663 Z"/>
  <path fill="#000000" d="M653.015 284.168 C653.932 281.708 655.058 277.246 655.517 274.201 L659.604 273.784 C658.645 277.329 656.81 281.958 655.642 283.918 Z"/>
  <path fill="#000000" d="M674.99 250.931 L678.618 250.931 L678.618 275.994 L690.628 275.994 L690.628 279.038 L674.99 279.038 Z"/>
  <path fill="#000000" d="M705.514 250.931 L709.142 250.931 L709.142 275.994 L721.152 275.994 L721.152 279.038 L705.514 279.038 Z"/>
  <path fill="#000000" d="M754.054 278.121 C752.72 278.788 750.051 279.455 746.631 279.455 C738.708 279.455 732.744 274.452 732.744 265.236 C732.744 256.436 738.708 250.473 747.424 250.473 C750.927 250.473 753.137 251.223 754.096 251.724 L753.22 254.684 C751.844 254.017 749.884 253.517 747.549 253.517 C740.96 253.517 736.581 257.728 736.581 265.111 C736.581 271.991 740.543 276.411 747.382 276.411 C749.592 276.411 751.844 275.953 753.304 275.244 Z"/>
  <path fill="#43bcff" d="M768.936 42.454 L513.336 42.454 L513.336 27.784 L768.936 27.784 Z"/>
  <path fill="#43bcff" d="M752.899 27.829 L769.373 27.829 L769.373 229.877 L752.899 229.877 Z"/>
  <path fill="#43bcff" d="M541.865 137.659 L537.8 121.79 C536.488 116.806 534.783 109.593 533.471 104.346 L533.209 104.346 C531.897 109.593 530.586 116.806 529.274 121.79 L525.471 137.659 Z M522.323 155.102 L501.902 230.026 L477.376 230.026 L518.52 87.165 L549.996 87.165 L576.359 175.562 L550.783 175.562 L545.144 155.102 Z"/>
  <path fill="#43bcff" d="M126.885 124.899 L100.358 124.899 L77.188 163.753 L121.961 163.753 L131.386 144.902 L168.5 144.902 L185.938 112.383 L133.143 112.383 Z"/>
  <path fill="#0017cf" d="M124.033 167.106 L110.956 167.106 L101.577 186.139 L147.763 186.139 L165.2 153.621 L130.776 153.621 Z"/>
  <path fill="#0017cf" d="M110.985 70.679 L207.01 70.679 L189.572 103.198 L134.549 103.198 L125.124 122.049 L80.351 122.049 Z"/>
  <path fill="#43bcff" d="M769.015 230.129 L551.146 230.129 L554.541 215.459 L769.015 215.459 Z"/>
  <path fill="#43bcff" d="M497.99 230.12 L21.666 230.12 L21.666 215.45 L497.99 215.45 Z"/>
  <path fill="#43bcff" d="M445.062 42.457 L21.721 42.457 L21.721 27.787 L450.36 27.787 Z"/>
  <path fill="#43bcff" d="M21.612 29.261 L38.086 29.261 L38.086 230.161 L21.612 230.161 Z"/>
</svg>
